<!DOCTYPE svg PUBLIC "-//W3C//DTD SVG 1.1//EN" "http://www.w3.org/Graphics/SVG/1.1/DTD/svg11.dtd">
<!-- Uploaded to: SVG Repo, www.svgrepo.com, Transformed by: SVG Repo Mixer Tools -->
<svg width="800px" height="800px" viewBox="0 0 24 24" id="Layer_1" data-name="Layer 1" xmlns="http://www.w3.org/2000/svg" fill="#000000">
<g id="SVGRepo_bgCarrier" stroke-width="0"/>
<g id="SVGRepo_tracerCarrier" stroke-linecap="round" stroke-linejoin="round"/>
<g id="SVGRepo_iconCarrier">
<defs>
<style>.cls-1{fill:none;stroke:#2F80ED;stroke-miterlimit:10;stroke-width:1.91px;}</style>
</defs>
<path class="cls-1" d="M12,12h0a6.93,6.93,0,0,1,2-4.89l4.66-4.66a2,2,0,0,1,2.87,0h0a2,2,0,0,1,0,2.87L16.89,10A6.92,6.92,0,0,1,12,12Z"/>
<path class="cls-1" d="M14.86,1.48H5.32A3.82,3.82,0,0,0,1.5,5.3v9.54a3.82,3.82,0,0,0,3.82,3.82H9.14L12,21.52l2.86-2.86h3.82a3.82,3.82,0,0,0,3.82-3.82V9.11"/>
</g>
</svg>