<svg xmlns="http://www.w3.org/2000/svg" width="24" height="24" fill="none" class="icon-xl-heavy"><path fill="#cecece" fill-rule="evenodd" d="M8.857 3h6.286c1.084 0 1.958 0 2.666.058.729.06 1.369.185 1.961.487a5 5 0 0 1 2.185 2.185c.302.592.428 1.233.487 1.961.058.708.058 1.582.058 2.666v3.286c0 1.084 0 1.958-.058 2.666-.06.729-.185 1.369-.487 1.961a5 5 0 0 1-2.185 2.185c-.592.302-1.232.428-1.961.487C17.1 21 16.227 21 15.143 21H8.857c-1.084 0-1.958 0-2.666-.058-.728-.06-1.369-.185-1.96-.487a5 5 0 0 1-2.186-2.185c-.302-.592-.428-1.232-.487-1.961C1.5 15.6 1.5 14.727 1.5 13.643v-3.286c0-1.084 0-1.958.058-2.666.06-.728.185-1.369.487-1.96A5 5 0 0 1 4.23 3.544c.592-.302 1.233-.428 1.961-.487C6.9 3 7.773 3 8.857 3M6.354 5.051c-.605.05-.953.142-1.216.276a3 3 0 0 0-1.311 1.311c-.134.263-.226.611-.276 1.216-.05.617-.051 1.41-.051 2.546v3.2c0 1.137 0 1.929.051 2.546.05.605.142.953.276 1.216a3 3 0 0 0 1.311 1.311c.263.134.611.226 1.216.276.617.05 1.41.051 2.546.051h.6V5h-.6c-1.137 0-1.929 0-2.546.051M11.5 5v14h3.6c1.137 0 1.929 0 2.546-.051.605-.05.953-.142 1.216-.276a3 3 0 0 0 1.311-1.311c.134-.263.226-.611.276-1.216.05-.617.051-1.41.051-2.546v-3.2c0-1.137 0-1.929-.051-2.546-.05-.605-.142-.953-.276-1.216a3 3 0 0 0-1.311-1.311c-.263-.134-.611-.226-1.216-.276C17.029 5.001 16.236 5 15.1 5zM5 8.5a1 1 0 0 1 1-1h1a1 1 0 1 1 0 2H6a1 1 0 0 1-1-1M5 12a1 1 0 0 1 1-1h1a1 1 0 1 1 0 2H6a1 1 0 0 1-1-1" clip-rule="evenodd"/></svg>
